<mxfile host="app.diagrams.net" agent="Mozilla/5.0 (Windows NT 10.0; Win64; x64) AppleWebKit/537.36 (KHTML, like Gecko) Chrome/142.0.0.0 Safari/537.36" version="28.2.8">
  <diagram name="Page-1" id="M-AIUhj9p3_aVeXdb6ao">
    <mxGraphModel dx="1140" dy="846" grid="1" gridSize="10" guides="1" tooltips="1" connect="1" arrows="1" fold="1" page="1" pageScale="1" pageWidth="1100" pageHeight="850" math="0" shadow="0">
      <root>
        <mxCell id="0" />
        <mxCell id="1" parent="0" />
        <mxCell id="YVlJM-mKavaOkOAXUvZT-1" value="Agen Properti" style="shape=umlActor;verticalLabelPosition=bottom;verticalAlign=top;html=1;outlineConnect=0;" vertex="1" parent="1">
          <mxGeometry x="150" y="235" width="30" height="60" as="geometry" />
        </mxCell>
        <mxCell id="YVlJM-mKavaOkOAXUvZT-2" value="Sistem Manajemen Properti" style="swimlane;whiteSpace=wrap;html=1;" vertex="1" parent="1">
          <mxGeometry x="310" y="110" width="520" height="310" as="geometry" />
        </mxCell>
        <mxCell id="YVlJM-mKavaOkOAXUvZT-7" value="Tambah Properti" style="ellipse;whiteSpace=wrap;html=1;" vertex="1" parent="YVlJM-mKavaOkOAXUvZT-2">
          <mxGeometry x="160" y="100" width="110" height="40" as="geometry" />
        </mxCell>
        <mxCell id="YVlJM-mKavaOkOAXUvZT-9" value="Jual Properti" style="ellipse;whiteSpace=wrap;html=1;" vertex="1" parent="YVlJM-mKavaOkOAXUvZT-2">
          <mxGeometry x="160" y="210" width="110" height="40" as="geometry" />
        </mxCell>
        <mxCell id="YVlJM-mKavaOkOAXUvZT-14" value="Kelola Properti" style="ellipse;whiteSpace=wrap;html=1;" vertex="1" parent="YVlJM-mKavaOkOAXUvZT-2">
          <mxGeometry x="19" y="160" width="110" height="40" as="geometry" />
        </mxCell>
        <mxCell id="YVlJM-mKavaOkOAXUvZT-15" value="Tambah Villa" style="ellipse;whiteSpace=wrap;html=1;" vertex="1" parent="YVlJM-mKavaOkOAXUvZT-2">
          <mxGeometry x="345" y="68" width="110" height="40" as="geometry" />
        </mxCell>
        <mxCell id="YVlJM-mKavaOkOAXUvZT-16" value="Tambah Apartemen" style="ellipse;whiteSpace=wrap;html=1;" vertex="1" parent="YVlJM-mKavaOkOAXUvZT-2">
          <mxGeometry x="346" y="120" width="110" height="40" as="geometry" />
        </mxCell>
        <mxCell id="YVlJM-mKavaOkOAXUvZT-18" value="Hapus Dari Daftar" style="ellipse;whiteSpace=wrap;html=1;" vertex="1" parent="YVlJM-mKavaOkOAXUvZT-2">
          <mxGeometry x="330" y="210" width="110" height="40" as="geometry" />
        </mxCell>
        <mxCell id="YVlJM-mKavaOkOAXUvZT-23" value="" style="endArrow=none;dashed=1;html=1;dashPattern=1 3;strokeWidth=2;rounded=0;exitX=0.5;exitY=0;exitDx=0;exitDy=0;entryX=0;entryY=0.5;entryDx=0;entryDy=0;" edge="1" parent="YVlJM-mKavaOkOAXUvZT-2" source="YVlJM-mKavaOkOAXUvZT-14" target="YVlJM-mKavaOkOAXUvZT-7">
          <mxGeometry width="50" height="50" relative="1" as="geometry">
            <mxPoint x="220" y="260" as="sourcePoint" />
            <mxPoint x="270" y="210" as="targetPoint" />
            <Array as="points" />
          </mxGeometry>
        </mxCell>
        <mxCell id="YVlJM-mKavaOkOAXUvZT-24" value="" style="endArrow=none;dashed=1;html=1;dashPattern=1 3;strokeWidth=2;rounded=0;exitX=0.5;exitY=1;exitDx=0;exitDy=0;entryX=0;entryY=0.5;entryDx=0;entryDy=0;" edge="1" parent="YVlJM-mKavaOkOAXUvZT-2" source="YVlJM-mKavaOkOAXUvZT-14" target="YVlJM-mKavaOkOAXUvZT-9">
          <mxGeometry width="50" height="50" relative="1" as="geometry">
            <mxPoint x="80" y="260" as="sourcePoint" />
            <mxPoint x="175" y="220" as="targetPoint" />
            <Array as="points" />
          </mxGeometry>
        </mxCell>
        <mxCell id="YVlJM-mKavaOkOAXUvZT-28" value="include" style="edgeLabel;html=1;align=center;verticalAlign=middle;resizable=0;points=[];" vertex="1" connectable="0" parent="YVlJM-mKavaOkOAXUvZT-24">
          <mxGeometry x="-0.069" y="-7" relative="1" as="geometry">
            <mxPoint y="7" as="offset" />
          </mxGeometry>
        </mxCell>
        <mxCell id="YVlJM-mKavaOkOAXUvZT-25" value="" style="endArrow=none;dashed=1;html=1;dashPattern=1 3;strokeWidth=2;rounded=0;exitX=1;exitY=0.5;exitDx=0;exitDy=0;entryX=0;entryY=0.5;entryDx=0;entryDy=0;" edge="1" parent="YVlJM-mKavaOkOAXUvZT-2" source="YVlJM-mKavaOkOAXUvZT-7" target="YVlJM-mKavaOkOAXUvZT-15">
          <mxGeometry width="50" height="50" relative="1" as="geometry">
            <mxPoint x="280" y="110" as="sourcePoint" />
            <mxPoint x="320" y="90" as="targetPoint" />
            <Array as="points" />
          </mxGeometry>
        </mxCell>
        <mxCell id="YVlJM-mKavaOkOAXUvZT-26" value="" style="endArrow=none;dashed=1;html=1;dashPattern=1 3;strokeWidth=2;rounded=0;exitX=1;exitY=0.5;exitDx=0;exitDy=0;entryX=0;entryY=0.5;entryDx=0;entryDy=0;" edge="1" parent="YVlJM-mKavaOkOAXUvZT-2" source="YVlJM-mKavaOkOAXUvZT-7" target="YVlJM-mKavaOkOAXUvZT-16">
          <mxGeometry width="50" height="50" relative="1" as="geometry">
            <mxPoint x="280" y="180" as="sourcePoint" />
            <mxPoint x="375" y="140" as="targetPoint" />
            <Array as="points" />
          </mxGeometry>
        </mxCell>
        <mxCell id="YVlJM-mKavaOkOAXUvZT-27" value="" style="endArrow=none;dashed=1;html=1;dashPattern=1 3;strokeWidth=2;rounded=0;exitX=1;exitY=0.5;exitDx=0;exitDy=0;entryX=0;entryY=0.5;entryDx=0;entryDy=0;" edge="1" parent="YVlJM-mKavaOkOAXUvZT-2" source="YVlJM-mKavaOkOAXUvZT-9" target="YVlJM-mKavaOkOAXUvZT-18">
          <mxGeometry width="50" height="50" relative="1" as="geometry">
            <mxPoint x="280" y="280" as="sourcePoint" />
            <mxPoint x="330" y="240" as="targetPoint" />
            <Array as="points" />
          </mxGeometry>
        </mxCell>
        <mxCell id="YVlJM-mKavaOkOAXUvZT-29" value="include" style="edgeLabel;html=1;align=center;verticalAlign=middle;resizable=0;points=[];" vertex="1" connectable="0" parent="1">
          <mxGeometry x="420" y="235" as="geometry" />
        </mxCell>
        <mxCell id="YVlJM-mKavaOkOAXUvZT-30" value="include" style="edgeLabel;html=1;align=center;verticalAlign=middle;resizable=0;points=[];" vertex="1" connectable="0" parent="1">
          <mxGeometry x="614" y="350" as="geometry">
            <mxPoint x="-7" y="-4" as="offset" />
          </mxGeometry>
        </mxCell>
        <mxCell id="YVlJM-mKavaOkOAXUvZT-31" value="extend" style="edgeLabel;html=1;align=center;verticalAlign=middle;resizable=0;points=[];" vertex="1" connectable="0" parent="1">
          <mxGeometry x="601" y="202" as="geometry">
            <mxPoint x="8" y="1" as="offset" />
          </mxGeometry>
        </mxCell>
        <mxCell id="YVlJM-mKavaOkOAXUvZT-32" value="extend" style="edgeLabel;html=1;align=center;verticalAlign=middle;resizable=0;points=[];" vertex="1" connectable="0" parent="1">
          <mxGeometry x="602" y="248" as="geometry">
            <mxPoint x="8" y="1" as="offset" />
          </mxGeometry>
        </mxCell>
        <mxCell id="YVlJM-mKavaOkOAXUvZT-34" value="" style="endArrow=classic;html=1;rounded=0;entryX=0;entryY=0.5;entryDx=0;entryDy=0;exitX=0.5;exitY=0.5;exitDx=0;exitDy=0;exitPerimeter=0;" edge="1" parent="1" source="YVlJM-mKavaOkOAXUvZT-1" target="YVlJM-mKavaOkOAXUvZT-14">
          <mxGeometry width="50" height="50" relative="1" as="geometry">
            <mxPoint x="190" y="270" as="sourcePoint" />
            <mxPoint x="270" y="260" as="targetPoint" />
          </mxGeometry>
        </mxCell>
      </root>
    </mxGraphModel>
  </diagram>
</mxfile>
